<svg width="103" height="22" viewBox="0 0 103 22" fill="none" xmlns="http://www.w3.org/2000/svg">
<path d="M12.002 21.9979C10.268 21.9979 9.11197 21.6579 7.10597 20.9439C5.88197 20.4339 4.99797 20.1959 4.14797 20.1959C3.29797 20.1959 2.85597 20.3999 2.17597 20.8419C1.80197 21.0799 1.42797 21.2839 1.05397 21.2839C0.373967 21.2839 -3.31849e-05 20.8419 -3.31849e-05 20.2639C-3.31849e-05 19.9239 0.169967 19.5839 0.475967 19.2439C0.917967 18.8019 1.42797 18.2239 2.00597 17.5779C4.28397 15.0619 6.52797 12.4099 8.73797 9.62192C10.744 7.10592 12.172 5.09992 13.09 3.60392C12.784 3.53592 12.512 3.46792 12.206 3.39992C11.424 3.26392 10.71 3.19592 10.064 3.19592C7.17397 3.19592 5.26997 4.89592 5.26997 7.47992C5.26997 8.15992 5.50797 8.97592 6.05197 9.62192V9.72392C6.05197 10.1319 5.54197 10.5059 4.69197 10.5059C3.19597 10.5059 1.32597 9.34992 1.32597 6.86792C1.32597 3.56992 4.28397 1.01992 8.56797 1.01992C9.75797 1.01992 11.254 1.25792 12.614 1.49592C14.484 1.80192 15.708 2.00592 17.204 2.00592C17.918 2.00592 18.292 2.27792 18.292 2.85592V2.95792C18.292 3.46792 17.578 4.79392 16.116 6.90192C14.654 9.00992 12.988 11.2539 11.084 13.5999C9.48597 15.6059 8.15997 17.1359 7.07197 18.2579C7.37797 18.3259 7.75197 18.3939 8.12597 18.4279C9.24797 18.5299 10.404 18.5979 11.594 18.5979C13.532 18.5979 14.926 18.2239 15.606 17.3739C15.674 17.3399 15.742 17.3399 15.81 17.3399C16.082 17.3399 16.354 17.7139 16.354 18.4279C16.354 19.9919 15.062 21.9979 12.002 21.9979ZM23.9564 21.5219C20.3184 21.5219 17.6324 19.2099 17.6324 15.5039C17.6324 12.7839 19.0604 9.82592 21.4404 8.05792C22.6304 7.20792 23.9564 6.76592 25.4184 6.76592C27.9684 6.76592 29.8724 8.09192 29.8724 10.1659C29.8724 12.3419 27.7984 14.1439 25.2144 15.0959C24.0924 15.5039 23.0384 15.7419 22.1204 15.7759C22.1884 16.7619 22.4944 17.5439 23.0044 18.0879C23.5824 18.6999 24.3644 19.0059 25.3504 19.0059C27.6964 19.0059 29.6004 18.0539 31.4704 16.0479C31.8444 16.0479 32.2184 16.3199 32.2184 16.7279C32.2184 17.1019 31.8444 17.7139 31.0624 18.4959C30.2804 19.3119 29.2604 20.0259 28.0024 20.6039C26.7444 21.2159 25.3844 21.5219 23.9564 21.5219ZM22.1884 14.3479C22.8004 14.2799 23.4124 14.0419 24.0584 13.6339C25.6564 12.5799 26.7444 10.8459 26.7444 9.51992C26.7444 8.80592 26.4044 8.49992 25.8604 8.49992C24.7384 8.49992 23.4804 10.1999 22.6984 12.3759C22.4604 13.0899 22.2904 13.7359 22.1884 14.3479ZM43.2225 21.3859C41.3865 21.3859 39.3805 20.1619 39.3805 17.6799C39.3805 16.5919 39.6525 15.4019 40.1625 13.3959C40.5365 12.0359 40.8085 10.8799 40.8085 10.1999C40.8085 9.68992 40.6385 9.41792 40.3325 9.41792C38.8025 9.41792 35.7085 13.9399 34.4845 20.9099C34.4505 21.2159 34.2125 21.3519 33.8045 21.3519C32.5805 21.3519 30.7105 20.0599 30.7105 18.6999C30.7105 18.3939 30.8125 17.6119 31.0165 16.3879C31.2205 15.1979 31.4585 13.9399 31.6965 12.6479C31.9345 11.4919 32.1385 10.4039 32.3085 9.38392C32.4785 8.36392 32.5805 7.71792 32.5805 7.47992C32.5805 7.13992 32.8185 6.96992 33.2605 6.96992C34.3825 6.96992 36.3205 8.15992 36.3205 9.21392C36.3205 9.58792 36.1505 10.6079 35.7765 12.2739C36.4905 10.6759 37.2725 9.38392 38.1905 8.43192C39.1425 7.47992 40.1625 7.00392 41.2165 7.00392C43.0525 7.00392 45.2285 8.60192 45.2285 10.6419C45.2285 11.4579 44.9225 12.7839 44.5145 14.2799C44.1065 15.8099 43.8005 17.0679 43.8005 17.7819C43.8005 18.3939 44.0385 18.6999 44.4805 18.6999C45.2965 18.6999 46.7585 17.7139 47.7445 16.0819H47.8805C48.1865 16.0819 48.5945 16.3539 48.5945 16.7959C48.5945 17.5779 47.4385 19.3459 45.8065 20.5019C44.9905 21.0799 44.1405 21.3859 43.2225 21.3859ZM59.39 16.1159L59.424 16.0479C59.458 16.0139 59.526 16.0139 59.594 16.0139C59.866 16.0139 60.24 16.2179 60.24 16.7619C60.24 17.6799 58.778 19.4819 56.67 20.6039C55.616 21.1819 54.494 21.4539 53.338 21.4539C50.55 21.4539 47.456 19.7199 47.456 14.1439C47.456 12.2059 47.762 10.0979 48.408 7.88792C49.054 5.67792 49.904 3.80792 51.026 2.27792C52.148 0.747921 53.372 -7.99894e-05 54.698 -7.99894e-05C56.636 -7.99894e-05 58.914 1.59792 58.914 4.48792C58.914 5.91592 58.472 7.51392 57.554 9.24792C56.636 11.0159 55.514 12.5459 54.256 13.8719C53.338 14.8239 52.522 15.5039 51.808 15.8779C51.91 16.7619 52.148 17.4419 52.522 17.9179C53.032 18.5979 53.814 18.9379 54.8 18.9379C56.534 18.9379 58.03 17.7819 59.39 16.1159ZM51.774 14.1439C52.42 13.4979 53.032 12.7159 53.61 11.7979C54.528 10.3359 55.208 8.80592 55.718 7.24192C56.228 5.67792 56.466 4.41992 56.466 3.50192C56.466 2.65192 56.16 2.24392 55.752 2.24392C55.242 2.24392 54.664 2.95792 54.052 4.38592C53.406 5.81392 52.862 7.51392 52.42 9.51992C52.046 11.2539 51.808 12.8179 51.774 14.1439ZM65.6147 6.69792C69.0147 6.69792 71.9047 9.07792 71.9047 13.0899C71.9047 15.9459 70.5787 18.6999 68.2667 20.2979C67.1107 21.0799 65.8187 21.4879 64.4247 21.4879C60.9227 21.4879 58.3387 18.8699 58.3387 14.9939C58.3387 12.2739 59.6307 9.55392 61.8407 7.92192C62.9627 7.10592 64.2207 6.69792 65.6147 6.69792ZM66.3627 8.70392C65.1387 8.70392 63.9147 10.3699 63.2347 12.7499C62.8607 13.9399 62.6907 15.1639 62.6907 16.3879C62.6907 18.2919 63.2347 19.3459 64.2207 19.3459C65.4447 19.3459 66.6687 17.6799 67.3827 15.2659C67.7227 14.0759 67.8927 12.8859 67.8927 11.7299C67.8927 9.79192 67.3147 8.70392 66.3627 8.70392ZM77.3988 21.4199C75.0528 21.4199 73.1828 19.6519 73.1828 17.6119C73.1828 16.7619 73.6248 14.4159 74.0328 12.3419C74.4068 10.3359 74.7808 8.36392 74.7808 7.68392V7.54792C74.7808 7.13992 75.0188 6.93592 75.5288 6.93592C76.8888 6.93592 78.8608 8.43192 78.8608 9.79192C78.8608 10.2339 78.6568 11.3899 78.2828 13.2599C77.8748 14.9259 77.5008 16.9319 77.5008 17.7479C77.5008 18.5299 77.7728 18.9039 78.3168 18.9039C78.9968 18.9039 79.6768 18.3599 80.3568 17.2379C81.0368 16.1159 81.5808 14.7559 82.0228 13.1579C82.4648 11.5599 82.6688 10.0639 82.6688 8.73792C82.6688 8.05792 82.6008 7.51392 82.4988 7.07192V7.00392C82.4988 6.76592 82.7368 6.62992 83.1788 6.62992C84.5388 6.62992 86.8508 7.92192 86.8508 10.1659C86.8508 11.4919 86.3748 13.0559 85.4568 14.8579C84.5388 16.6599 83.3488 18.1899 81.8868 19.4819C80.4248 20.7739 78.9288 21.4199 77.3988 21.4199ZM93.7826 21.5219C90.1446 21.5219 87.4586 19.2099 87.4586 15.5039C87.4586 12.7839 88.8866 9.82592 91.2666 8.05792C92.4566 7.20792 93.7826 6.76592 95.2446 6.76592C97.7946 6.76592 99.6986 8.09192 99.6986 10.1659C99.6986 12.3419 97.6246 14.1439 95.0406 15.0959C93.9186 15.5039 92.8646 15.7419 91.9466 15.7759C92.0146 16.7619 92.3206 17.5439 92.8306 18.0879C93.4086 18.6999 94.1906 19.0059 95.1766 19.0059C97.5226 19.0059 99.4266 18.0539 101.297 16.0479C101.671 16.0479 102.045 16.3199 102.045 16.7279C102.045 17.1019 101.671 17.7139 100.889 18.4959C100.107 19.3119 99.0866 20.0259 97.8286 20.6039C96.5706 21.2159 95.2106 21.5219 93.7826 21.5219ZM92.0146 14.3479C92.6266 14.2799 93.2386 14.0419 93.8846 13.6339C95.4826 12.5799 96.5706 10.8459 96.5706 9.51992C96.5706 8.80592 96.2306 8.49992 95.6866 8.49992C94.5646 8.49992 93.3066 10.1999 92.5246 12.3759C92.2866 13.0899 92.1166 13.7359 92.0146 14.3479Z" fill="#282828"/>
</svg>
