<?xml version="1.0" standalone="no"?>
<!DOCTYPE svg PUBLIC "-//W3C//DTD SVG 20010904//EN"
 "http://www.w3.org/TR/2001/REC-SVG-20010904/DTD/svg10.dtd">
<svg version="1.0" xmlns="http://www.w3.org/2000/svg"
 width="960.000000pt" height="960.000000pt" viewBox="0 0 960.000000 960.000000"
 preserveAspectRatio="xMidYMid meet">
<metadata>
Created by potrace 1.14, written by Peter Selinger 2001-2017
</metadata>
<g transform="translate(0.000000,960.000000) scale(0.100000,-0.100000)"
fill="#000000" stroke="none">
<path d="M4777 8644 c-2 -2 -67 -7 -143 -9 -76 -3 -155 -7 -174 -10 -19 -2
-63 -7 -98 -10 -35 -4 -71 -8 -80 -10 -22 -4 -86 -13 -142 -21 -24 -3 -48 -7
-51 -10 -4 -2 -24 -6 -44 -9 -21 -2 -45 -7 -54 -9 -9 -3 -27 -7 -41 -10 -196
-39 -726 -222 -752 -260 -4 -6 -8 -7 -8 -3 0 12 -252 -121 -383 -201 -60 -37
-117 -71 -128 -77 -10 -5 -19 -13 -19 -17 0 -5 -6 -8 -14 -8 -8 0 -16 -4 -18
-8 -1 -5 -26 -24 -53 -43 -50 -34 -175 -128 -185 -139 -3 -3 -32 -27 -65 -55
-167 -139 -340 -314 -486 -490 -183 -223 -317 -425 -447 -675 -24 -47 -47 -89
-52 -95 -5 -5 -9 -13 -9 -18 0 -4 -11 -31 -25 -60 -38 -83 -96 -227 -112 -277
-8 -25 -19 -54 -25 -65 -5 -11 -11 -29 -14 -40 -2 -11 -13 -47 -23 -80 -19
-56 -38 -123 -49 -170 -9 -39 -11 -50 -14 -50 -1 0 -3 -9 -4 -20 -1 -11 -7
-38 -13 -60 -6 -22 -14 -53 -17 -70 -33 -188 -36 -206 -50 -325 -15 -125 -20
-233 -19 -445 1 -283 11 -425 44 -615 12 -70 22 -131 25 -150 1 -8 7 -33 13
-55 6 -22 13 -53 16 -68 3 -15 12 -54 21 -85 10 -31 19 -68 22 -82 2 -13 8
-29 13 -35 4 -5 8 -14 9 -20 0 -17 24 -99 31 -110 4 -5 10 -22 14 -37 3 -15
11 -40 18 -55 6 -15 12 -31 13 -35 2 -5 4 -10 5 -13 1 -3 3 -8 5 -12 26 -94
232 -514 296 -605 11 -14 19 -31 19 -37 0 -6 5 -11 10 -11 6 0 10 -5 10 -11 0
-7 16 -34 35 -60 19 -27 35 -51 35 -54 0 -3 5 -11 10 -18 6 -7 44 -56 85 -111
76 -102 110 -146 142 -182 10 -12 38 -45 63 -74 49 -58 218 -229 296 -300 118
-109 373 -310 393 -310 5 0 11 -4 13 -9 3 -8 136 -96 223 -147 27 -16 59 -34
70 -41 11 -6 72 -38 135 -70 63 -31 117 -61 118 -65 2 -5 10 -8 17 -8 8 0 42
-13 77 -29 85 -40 269 -111 285 -111 7 0 21 -4 31 -9 18 -10 50 -22 67 -26 6
-2 42 -12 80 -23 62 -18 110 -31 140 -37 6 -2 28 -7 50 -13 85 -23 266 -56
350 -65 20 -2 20 4 22 409 1 425 -1 460 -42 564 -50 127 -203 261 -330 290 -5
1 -21 7 -35 12 -324 123 -553 257 -838 491 -68 56 -255 252 -327 342 -44 55
-82 102 -85 105 -3 3 -9 12 -15 21 -5 9 -36 56 -67 103 -32 48 -58 91 -58 96
0 6 -4 10 -10 10 -5 0 -10 4 -10 9 0 6 -21 50 -48 98 -39 73 -114 234 -118
253 -1 9 -15 45 -23 60 -8 15 -73 222 -85 270 -6 23 -32 141 -41 184 -2 10 -6
37 -9 60 -3 22 -8 59 -12 81 -13 82 -16 135 -17 335 -1 209 7 339 28 440 3 14
7 42 10 62 4 32 14 78 29 138 3 8 9 35 15 60 30 127 95 306 173 470 45 96 182
338 198 350 3 3 21 28 40 55 19 28 36 52 40 55 3 3 17 21 30 40 13 19 33 44
44 55 12 11 31 34 44 50 54 70 250 260 337 326 17 13 32 26 35 29 3 3 21 17
40 30 19 13 37 27 40 30 8 10 128 90 135 90 4 0 21 11 39 25 34 26 297 163
356 185 19 7 51 19 70 27 41 16 181 64 195 67 6 1 16 5 23 9 6 5 12 6 12 3 0
-3 12 -1 28 5 15 6 36 13 47 15 24 5 57 12 88 20 98 24 263 47 344 48 24 1 43
4 43 7 0 6 385 3 445 -5 22 -2 65 -7 95 -10 56 -6 144 -20 190 -31 14 -3 34
-8 45 -9 11 -2 39 -8 62 -14 23 -5 44 -7 48 -4 3 3 5 0 5 -6 0 -7 8 -12 19
-12 55 0 425 -142 514 -197 20 -13 37 -21 37 -19 0 5 109 -58 128 -74 6 -6 12
-8 12 -5 0 3 22 -11 50 -30 27 -19 52 -35 55 -35 3 0 29 -18 58 -40 29 -22 57
-44 62 -48 45 -33 111 -89 118 -99 4 -7 12 -13 17 -13 19 0 254 -242 335 -345
22 -27 42 -52 45 -55 14 -14 152 -217 163 -240 4 -8 13 -24 20 -35 23 -37 60
-110 58 -114 -2 -2 1 -7 6 -10 12 -9 102 -202 119 -256 2 -5 21 -61 43 -124
22 -62 38 -118 35 -122 -3 -5 0 -9 7 -9 7 0 10 -3 6 -6 -3 -3 -2 -16 3 -29 5
-13 16 -58 25 -102 22 -103 21 -101 30 -153 4 -25 9 -53 11 -63 25 -135 24
-566 -2 -729 -8 -51 -11 -73 -18 -108 -4 -19 -9 -48 -11 -65 -2 -16 -4 -31 -6
-32 -2 -3 -1 -2 -14 -58 -10 -47 -12 -54 -15 -57 -1 -2 -3 -10 -5 -18 -1 -8
-11 -42 -20 -75 -10 -33 -18 -62 -18 -65 0 -3 -6 -20 -14 -37 -7 -18 -11 -33
-8 -33 4 0 0 -12 -8 -27 -20 -38 -78 -185 -79 -200 -1 -7 -6 -13 -11 -13 -6 0
-8 -3 -5 -6 7 -6 -103 -225 -172 -344 -52 -90 -149 -240 -167 -258 -7 -7 -13
-18 -13 -23 0 -5 -8 -17 -17 -27 -10 -10 -30 -36 -46 -58 -15 -22 -35 -49 -45
-60 -9 -10 -29 -35 -44 -56 -15 -20 -33 -42 -40 -50 -7 -7 -35 -40 -63 -73
-97 -116 -328 -353 -452 -465 -81 -73 -166 -147 -198 -171 -16 -13 -32 -26
-35 -30 -3 -4 -32 -29 -66 -56 -66 -52 -80 -63 -199 -152 -44 -33 -85 -65 -92
-71 -7 -5 -15 -10 -18 -10 -4 0 -13 -7 -21 -15 -22 -22 -215 -153 -261 -176
-13 -7 -23 -15 -23 -19 0 -4 -13 -13 -30 -20 -16 -7 -30 -15 -30 -19 0 -4 -12
-12 -27 -19 -16 -6 -59 -32 -98 -56 -179 -114 -566 -326 -594 -326 -5 0 -11
-3 -13 -7 -1 -5 -19 -15 -38 -25 -19 -9 -56 -26 -82 -39 -53 -25 -54 -32 -5
-35 18 -1 60 -5 94 -8 34 -4 122 -9 195 -12 153 -6 133 -5 223 -5 39 1 77 1
85 1 14 -1 37 1 195 15 137 11 193 19 370 50 52 9 79 14 130 27 28 7 54 11 59
10 4 -2 14 3 22 9 8 6 14 9 14 6 0 -2 37 6 83 20 45 13 91 25 102 27 29 5 292
100 347 125 26 11 50 21 54 21 11 0 319 154 379 189 28 17 64 37 80 47 65 37
318 210 372 254 16 14 47 39 69 55 21 17 54 44 74 61 19 17 46 39 59 50 12 10
80 76 150 145 169 168 257 269 387 444 32 44 62 82 67 83 4 2 7 7 7 11 0 5 26
48 58 97 106 161 282 486 282 519 0 8 5 15 10 15 6 0 10 9 10 19 0 11 4 22 9
25 5 3 11 16 15 29 3 13 13 41 23 63 9 21 17 41 18 44 1 5 41 113 52 140 3 8
7 22 8 30 2 8 12 40 22 70 11 30 21 58 22 63 0 4 1 8 2 10 1 4 8 32 13 55 3
12 7 26 10 30 3 5 7 19 10 33 2 13 11 54 20 92 9 37 18 82 21 100 3 17 12 66
20 109 14 77 28 184 29 226 1 12 3 22 6 22 8 0 13 132 13 395 1 301 -6 400
-44 630 -12 66 -22 129 -24 140 -1 11 -8 38 -13 60 -6 22 -14 54 -17 72 -3 18
-9 42 -14 55 -5 13 -9 28 -10 33 -9 58 -85 289 -149 450 -65 164 -215 465
-273 547 -11 14 -19 31 -19 37 0 6 -4 11 -10 11 -5 0 -10 5 -10 11 0 6 -25 47
-55 91 -30 44 -55 84 -55 89 0 5 -4 9 -9 9 -5 0 -20 17 -32 38 -13 20 -29 41
-36 45 -7 4 -13 12 -13 17 0 6 -8 18 -17 28 -10 10 -31 36 -48 57 -16 21 -34
43 -40 49 -5 6 -32 37 -58 68 -64 77 -255 268 -341 343 -38 33 -75 65 -81 72
-7 7 -80 63 -163 125 -195 147 -348 243 -552 345 -63 32 -116 61 -118 65 -2 5
-10 8 -18 8 -7 0 -37 11 -66 24 -83 39 -118 53 -208 86 -96 36 -235 81 -265
88 -26 5 -37 8 -55 15 -21 8 -261 64 -280 66 -8 0 -53 8 -100 16 -93 17 -131
22 -202 30 -27 3 -72 8 -100 11 -29 3 -111 7 -183 10 -71 2 -140 6 -152 8 -11
2 -23 3 -26 0z"/>
</g>
</svg>
