<?xml version="1.0" encoding="UTF-8"?>
<svg id="Layer_2" data-name="Layer 2" xmlns="http://www.w3.org/2000/svg" xmlns:xlink="http://www.w3.org/1999/xlink" viewBox="0 0 447.56 439.11">
  <defs>
    <style>
      .cls-1 {
        fill: #fff;
      }

      .cls-2 {
        fill: url(#linear-gradient);
      }
    </style>
    <linearGradient id="linear-gradient" x1="87.64" y1="41.06" x2="357.64" y2="395.06" gradientUnits="userSpaceOnUse">
      <stop offset="0" stop-color="#ff6ea1"/>
      <stop offset="1" stop-color="#ff9f7c"/>
    </linearGradient>
  </defs>
  <g id="Layer_1-2" data-name="Layer 1">
    <g>
      <rect class="cls-2" width="447.56" height="439.11" rx="68.89" ry="68.89"/>
      <path class="cls-1" d="M213.14,259.15c.61,1.83,1.14,2.17,1.49,2.18.88.04,1.41-1.91,3.68-5.51.5-.8.93-1.43,1.2-1.81,0,0,0,0,0,0,.01-.02,1.82-2.86,5.43-7.06.29-.34.45-.51.67-.76.52-.57,1.4-1.51,3.1-3.06,0,0,.95-.87,1.71-1.51,3.11-2.65,58.56-43.63,59.07-42.88.55.81-50.8,36.54-50.81,36.53,0,0,.57-.42,1.24-.89.94-.67,1.45-1.01,3.9-2.78.39-.28,1.45-1.05,2.88-2.09.33-.24,2.04-1.48,3.92-2.87,3.51-2.6,4.84-3.67,6.62-4.96,4.98-3.62,5.46-3.57,9.65-6.62,4.33-3.15,3.53-2.99,8.64-6.8,4.64-3.46,5.79-3.95,9.65-7.07,1.22-.99,3.18-2.58,5.6-4.87,1.44-1.36,3.37-3.38,7.17-7.35,2.63-2.76,2.99-3.16,4.41-4.59,1.68-1.69,3.11-3.07,4.69-4.59,1.68-1.62,2.54-2.45,3.49-3.31.57-.51,2.55-2.29,4.23-3.58,3.78-2.92,7.81-6.04,12.5-5.6.82.08,2.74.28,4.59,1.65,1.2.89,1.91,1.94,2.29,2.62.55,1.66,1.18,4.35.65,7.49-.38,2.27-1.22,3.86-2.66,6.29-3.29,5.56-5.55,9.38-10.22,14.72-1.74,1.98-3.2,3.45-6.14,6.38-2.5,2.49-5.97,5.95-10.71,10.05-2.39,2.07-7.87,6.7-15.24,11.85-3.59,2.51-4.1,2.7-7.38,5.08-5.07,3.68-5.04,4.07-9.98,7.68-3.84,2.8-5.02,3.42-10.35,7.3-2.4,1.75-4.36,3.22-4.36,3.22-2.77,2.08-2.74,2.12-4.51,3.42-2.61,1.92-3.41,2.37-4.42,3.13-.02.02-.49.38-.98.79-1.35,1.13-2.29,2.16-3.87,3.85-2.38,2.53-2.12,2.18-2.95,3.12-.74.83-1.53,1.78-2.63,3.06-1.02,1.2-2.01,2.39-3.32,4.03-1.69,2.11-3.08,3.93-3.91,5.03,0,0,0,0,0,0,0,0-1.86,3.13-3.42,6.1-1.55,2.96-2.25,3.87-3.26,5.83-2.51,4.84-6.28,5.84-10.84,2.81-7.01-4.6-13.33-13.66-18.24-20.81-9.1-12.62-16.3-34.89-31.24-38.88-3.53-1.07-12.95.57-10.64,5.4,4.65,6.55,6.86,15.26,8.3,23.07,1.51,8.15,2.25,15.63,4.21,23.3,2.85,17.82,16.12,44.97,33.61,57.67,12.78,10.53,35.11,23.43,53.52,33.89,4.75,2.31,6.32,2.11,11.88,5.69.88.58,1.79,1.11,2.29,2.06.8,2.61-1.06,5.27-2.67,7.19-7.01,8.45-17.01,8-26.27,4.42-67.82-26.72-153.45-84.44-185.75-152.87C4.74,140.88,110.68,56.92,203.05,125.01c1.74,1.31,1.62-.06,2.42-2.33.82-2.93,1.81-5.85,2.86-8.63,22.12-55.66,73.16-85.72,128.14-68.11,138.49,51.6,49.36,246.9-68.13,299.05-4.41,1.7-6.73,2.49-11.67,1.49-1.78-.39-2.92-.97-4.5-2.03-2.44-1.64-3.61-2.54-4.59-3.83-.67-.88-1.8-2.37-2.08-4.56-.08-.61-.19-2.09.54-4.12,1.66-4.61,6.13-7.8,8.05-9.13,5.82-4.06,8.86-5.85,12.5-8.15,6.96-4.41,13.01-9.41,19.49-14.78,36.42-30.15,55.71-60.02,55.71-60.02,8.21-12.26,15.55-23.21,21.33-39.18,6.34-17.53,24.65-68.14-4.29-100.31-18.28-20.32-51.54-29.13-77.91-18.38-24.55,10.01-42.79,38.86-47,66.86-1.4,6.6-2.1,14.02-3.07,18.62-.94,4.6-3.12,8.3-8.23,9.11-4.76,1.17-9.77-1.3-12.9-3.9-4.7-3.46-9.67-6.63-14.3-10.2-16.14-12.84-32.99-23.35-53.32-26.78-40.88-7.17-73.53,30.93-65.71,67.66,2.68,22.79,14.52,41.56,24.71,55.8,11.81,16.82,29.48,31.53,44.48,45.72.69.67,1.51,1.39,2.23,2.01.49.41.86.68.96.48-.02-1.81-1.04-4.67-1.63-6.49-4.25-12.04-6.5-29.63-9.53-41.59-.63-3.92-2.19-7.63-4.04-11.17-1.18-2.25-2.09-4.09-3.81-5.68-2.59-2.41-6.35-4.13-7.5-7.69-.45-1.74-.62-4.15.11-5.62,1.46-3,5.54-3.4,8.2-5.12,8.69-5.62,10.13-7.83,17.97-11.08,9.7-4.01,19.55-1.21,23.23-.17,15.16,4.3,23.57,16.44,30.91,27.03,5.22,7.53,8.48,14.45,10.47,19.33Z"/>
    </g>
  </g>
</svg>